<?xml version="1.0" encoding="UTF-8" standalone="no"?>
<!DOCTYPE svg PUBLIC "-//W3C//DTD SVG 1.1//EN" "http://www.w3.org/Graphics/SVG/1.1/DTD/svg11.dtd">
<svg width="100%" height="100%" viewBox="0 0 4167 4167" version="1.1" xmlns="http://www.w3.org/2000/svg" xmlns:xlink="http://www.w3.org/1999/xlink" xml:space="preserve" xmlns:serif="http://www.serif.com/" style="fill-rule:evenodd;clip-rule:evenodd;stroke-linejoin:round;stroke-miterlimit:2;">
    <g transform="matrix(1.27053,0,0,1.27053,-805.344,-2184.55)">
        <g transform="matrix(0.792242,0,0,0.897771,633.864,1719.41)">
            <rect x="0.004" y="0" width="4139.5" height="3652.91" style="fill:rgb(14,15,20);"/>
        </g>
        <g transform="matrix(0.750001,0,0,1,568.399,693.162)">
            <g transform="matrix(847.777,0,0,847.777,1442.25,2937.7)">
                <path d="M1,-0.24C1.094,-0.257 1.164,-0.302 1.164,-0.42C1.164,-0.585 1.024,-0.64 0.843,-0.64L0.183,-0.64L0.183,-0L0.433,-0L0.433,-0.18L0.691,-0.18C0.851,-0.18 0.891,-0.167 0.891,-0.107L0.891,-0L1.141,-0L1.141,-0.137C1.141,-0.201 1.108,-0.229 1,-0.24ZM0.433,-0.347L0.433,-0.44L0.843,-0.44C0.883,-0.44 0.914,-0.43 0.914,-0.395C0.914,-0.357 0.883,-0.347 0.843,-0.347L0.433,-0.347Z" style="fill:rgb(246,246,246);fill-rule:nonzero;"/>
            </g>
            <g transform="matrix(847.777,0,0,847.777,2433.3,2937.7)">
                <rect x="0.085" y="-0.64" width="0.25" height="0.64" style="fill:rgb(246,246,246);"/>
            </g>
            <g transform="matrix(847.777,0,0,847.777,2759.69,2937.7)">
                <path d="M0.04,-0.235C0.04,-0.076 0.232,0.02 0.549,0.02C0.884,0.02 1.021,-0.046 1.021,-0.208C1.021,-0.326 0.915,-0.37 0.629,-0.37C0.364,-0.37 0.304,-0.379 0.304,-0.419C0.304,-0.454 0.37,-0.469 0.52,-0.469C0.659,-0.469 0.741,-0.445 0.749,-0.403L1.007,-0.403C1.007,-0.57 0.84,-0.661 0.53,-0.661C0.205,-0.661 0.05,-0.589 0.05,-0.437C0.05,-0.32 0.166,-0.27 0.437,-0.27C0.705,-0.27 0.777,-0.26 0.777,-0.222C0.777,-0.185 0.729,-0.173 0.58,-0.173C0.426,-0.173 0.326,-0.196 0.313,-0.235L0.04,-0.235Z" style="fill:rgb(246,246,246);fill-rule:nonzero;"/>
            </g>
            <g transform="matrix(833.744,0,0,847.777,3659.89,2937.7)">
                <rect x="0.05" y="-0.151" width="0.254" height="0.151" style="fill:rgb(202,229,12);"/>
            </g>
            <g transform="matrix(1,0,0,1,95.8374,0)">
                <path d="M1192.13,2937.65L890.306,2395.18L1108.19,2395.18L1425.2,2937.59L1192.13,2937.65Z" style="fill:rgb(246,246,246);"/>
            </g>
            <g transform="matrix(-1,0,0,1,2059.07,0)">
                <path d="M1192.13,2937.65L890.306,2395.18L1108.19,2395.18L1425.2,2937.59L1192.13,2937.65Z" style="fill:rgb(246,246,246);"/>
            </g>
        </g>
    </g>
</svg>
